<svg width="108.000000" height="40.000000" viewBox="0 0 108 40" fill="none" xmlns="http://www.w3.org/2000/svg" xmlns:xlink="http://www.w3.org/1999/xlink">
	<desc>
			Created with Pixso.
	</desc>
	<defs>
		<clipPath id="clip4_136">
			<rect id="coffee-beans" width="35.000000" height="35.000000" fill="white" fill-opacity="0"/>
		</clipPath>
	</defs>
	<rect id="coffee-beans" width="35.000000" height="35.000000" fill="#FFFFFF" fill-opacity="0"/>
	<g clip-path="url(#clip4_136)">
		<path id="Vector" d="M0.05 26.98C0.6 31.54 6.09 34.98 12.83 34.98C18.9 34.98 24.05 32.18 25.36 28.18L25.36 28.17C25.57 27.56 25.67 26.91 25.67 26.26C25.67 26.06 25.66 25.87 25.63 25.67L25.63 25.61L25.63 25.61C25.39 23.88 24.53 22.3 23.22 21.16C24.72 21.81 26.33 22.17 27.96 22.2C29.32 22.22 30.66 21.89 31.84 21.22L31.84 21.22C32.3 20.96 32.72 20.65 33.09 20.28C33.37 20 33.62 19.68 33.84 19.35L33.84 19.35C36.3 15.64 34.72 9.42 30.17 4.87C25.96 0.65 20.17 -1.06 16.4 0.79C15.79 1.08 15.24 1.48 14.76 1.95C14.58 2.13 14.42 2.32 14.27 2.52L14.27 2.52C11.46 6.13 12.96 12.65 17.67 17.37C18.14 17.83 18.63 18.27 19.14 18.68C17.13 17.92 14.99 17.53 12.83 17.54C6.81 17.54 1.54 20.43 0.28 24.41C0.09 25.01 0 25.63 0 26.26C0 26.5 0.02 26.74 0.05 26.98L0.05 26.98ZM12.83 33.81C7.16 33.81 2.31 31.12 1.35 27.56C1.37 27.56 1.39 27.56 1.42 27.56C1.62 27.59 1.82 27.61 2.01 27.64C2.04 27.65 2.06 27.65 2.09 27.66C2.26 27.68 2.43 27.72 2.59 27.75C2.61 27.75 2.64 27.76 2.67 27.77C2.84 27.8 3 27.84 3.16 27.88C3.2 27.89 3.23 27.9 3.27 27.91C3.42 27.94 3.58 27.98 3.73 28.02C5.24 28.45 6.8 28.65 8.36 28.63C9.92 28.65 11.48 28.45 12.98 28.02C14.39 27.62 15.85 27.43 17.31 27.46C18.77 27.43 20.23 27.62 21.64 28.02C21.78 28.06 21.93 28.1 22.08 28.14C22.12 28.15 22.15 28.15 22.19 28.16C22.35 28.2 22.51 28.24 22.68 28.28C22.7 28.28 22.72 28.29 22.75 28.29C22.9 28.33 23.07 28.36 23.24 28.39C23.27 28.39 23.3 28.4 23.33 28.4C23.52 28.44 23.71 28.46 23.92 28.49C23.94 28.49 23.95 28.5 23.97 28.5C22.46 31.62 17.94 33.81 12.83 33.81ZM29.35 5.69C33.17 9.52 34.77 14.75 33.24 18.03C33.23 18.01 33.21 17.99 33.19 17.97C33.04 17.79 32.9 17.62 32.77 17.45C32.76 17.43 32.75 17.42 32.74 17.4C32.62 17.24 32.5 17.09 32.4 16.94C32.38 16.91 32.37 16.89 32.35 16.86C32.24 16.71 32.14 16.55 32.05 16.4C32.03 16.37 32.01 16.35 31.99 16.32C31.9 16.17 31.81 16.02 31.72 15.87C30.94 14.52 29.96 13.29 28.82 12.22C27.72 11.11 26.46 10.18 25.08 9.44C23.79 8.75 22.62 7.87 21.59 6.83C20.52 5.84 19.6 4.69 18.87 3.42C18.8 3.3 18.72 3.17 18.65 3.05L18.59 2.95C18.51 2.82 18.42 2.68 18.33 2.55C18.32 2.53 18.31 2.52 18.3 2.5C18.22 2.38 18.13 2.25 18.04 2.12C18.01 2.09 17.99 2.06 17.97 2.03C17.87 1.88 17.76 1.73 17.63 1.58C17.63 1.57 17.62 1.56 17.61 1.55C20.95 0.43 25.74 2.08 29.35 5.69ZM15.58 2.77C15.86 2.5 16.18 2.25 16.52 2.05C16.53 2.07 16.53 2.08 16.54 2.09C16.67 2.24 16.79 2.39 16.9 2.54C16.92 2.56 16.94 2.59 16.95 2.61C17.06 2.76 17.16 2.9 17.26 3.04C17.28 3.07 17.29 3.1 17.31 3.13C17.41 3.27 17.49 3.4 17.58 3.54C17.59 3.56 17.61 3.59 17.62 3.61C17.71 3.75 17.79 3.89 17.88 4.02C18.66 5.38 19.63 6.6 20.77 7.67C21.87 8.78 23.13 9.72 24.51 10.45C25.8 11.14 26.98 12.02 28.01 13.06C29.08 14.06 29.99 15.21 30.72 16.48C30.78 16.58 30.84 16.68 30.91 16.78C30.93 16.81 30.95 16.85 30.97 16.88C31.01 16.95 31.06 17.02 31.1 17.09C31.13 17.13 31.15 17.17 31.18 17.21C31.22 17.28 31.27 17.34 31.31 17.41C31.34 17.45 31.37 17.5 31.4 17.55C31.45 17.61 31.49 17.68 31.54 17.74C31.57 17.79 31.61 17.84 31.64 17.89C31.69 17.96 31.74 18.02 31.79 18.09C31.83 18.14 31.87 18.2 31.91 18.25C31.97 18.32 32.02 18.39 32.08 18.46C32.13 18.51 32.17 18.57 32.22 18.63C32.28 18.7 32.34 18.78 32.41 18.85C32.46 18.91 32.51 18.97 32.56 19.03C32.58 19.04 32.59 19.06 32.6 19.07C32.5 19.21 32.38 19.33 32.26 19.46C32.08 19.64 31.87 19.81 31.65 19.96L31.63 19.94C31.59 19.9 31.56 19.86 31.52 19.82C31.46 19.74 31.39 19.66 31.33 19.59C31.29 19.54 31.25 19.49 31.22 19.45C31.16 19.38 31.11 19.31 31.06 19.25C31.02 19.2 30.99 19.16 30.95 19.11C30.91 19.05 30.86 18.99 30.82 18.93C30.79 18.88 30.76 18.84 30.73 18.8C30.68 18.74 30.64 18.68 30.6 18.62C30.57 18.58 30.55 18.54 30.52 18.49C30.48 18.43 30.44 18.37 30.4 18.31C30.37 18.27 30.35 18.24 30.33 18.2C30.28 18.13 30.24 18.07 30.2 18C30.18 17.97 30.16 17.94 30.14 17.91C30.09 17.81 30.03 17.72 29.97 17.62C29.19 16.27 28.21 15.04 27.07 13.97C25.97 12.87 24.71 11.93 23.33 11.19C22.04 10.5 20.86 9.62 19.84 8.58C18.77 7.59 17.85 6.43 17.12 5.17C17.03 5.02 16.94 4.87 16.84 4.72C16.82 4.69 16.8 4.65 16.78 4.62C16.69 4.47 16.59 4.31 16.48 4.15C16.46 4.12 16.43 4.08 16.41 4.05C16.3 3.89 16.18 3.72 16.04 3.54C16.02 3.51 16 3.48 15.97 3.45C15.83 3.27 15.68 3.07 15.5 2.87L15.5 2.86C15.53 2.83 15.55 2.8 15.58 2.77ZM18.5 16.54C14.46 12.49 12.93 7.09 14.79 3.84C14.8 3.85 14.82 3.87 14.83 3.89C14.96 4.04 15.07 4.19 15.18 4.34C15.2 4.36 15.22 4.39 15.24 4.42C15.33 4.55 15.42 4.68 15.51 4.8C15.52 4.82 15.54 4.85 15.56 4.87C15.65 5.01 15.74 5.15 15.82 5.29C15.84 5.32 15.86 5.34 15.88 5.37C15.96 5.51 16.04 5.64 16.12 5.77C16.9 7.13 17.88 8.36 19.02 9.42C20.12 10.53 21.38 11.47 22.76 12.21C24.05 12.89 25.23 13.77 26.26 14.81C27.33 15.81 28.24 16.96 28.97 18.23C29.06 18.38 29.16 18.53 29.25 18.68C29.27 18.71 29.29 18.75 29.32 18.78C29.41 18.94 29.52 19.1 29.63 19.26C29.65 19.29 29.67 19.33 29.7 19.36C29.81 19.53 29.93 19.7 30.07 19.87L30.08 19.9C30.22 20.08 30.38 20.27 30.54 20.46C30.56 20.49 30.58 20.51 30.6 20.54C27.29 21.91 22.25 20.28 18.5 16.54ZM12.83 18.7C18.56 18.7 23.42 21.43 24.34 25.03C24.32 25.02 24.29 25.02 24.27 25.02C24.06 25 23.86 24.97 23.67 24.94C23.64 24.94 23.62 24.93 23.59 24.93C23.42 24.9 23.26 24.87 23.1 24.83C23.07 24.83 23.03 24.82 23 24.82C22.84 24.78 22.67 24.74 22.52 24.7C22.47 24.69 22.43 24.68 22.39 24.67C22.24 24.63 22.09 24.6 21.94 24.56C20.43 24.13 18.87 23.93 17.31 23.96C15.75 23.93 14.19 24.13 12.69 24.56C11.28 24.96 9.82 25.15 8.36 25.12C6.9 25.15 5.44 24.96 4.03 24.56C3.89 24.52 3.74 24.48 3.59 24.45C3.55 24.44 3.51 24.43 3.47 24.42C3.31 24.38 3.15 24.34 2.98 24.3C2.95 24.3 2.93 24.29 2.9 24.28C2.74 24.25 2.58 24.22 2.41 24.19C2.38 24.18 2.35 24.18 2.32 24.17C2.13 24.14 1.93 24.11 1.72 24.09C1.7 24.08 1.68 24.08 1.66 24.08C3.14 20.93 7.68 18.7 12.83 18.7ZM1.28 25.21L1.3 25.21C1.52 25.24 1.73 25.26 1.93 25.29C1.96 25.3 1.99 25.3 2.02 25.31C2.21 25.34 2.39 25.37 2.56 25.41C2.6 25.41 2.63 25.42 2.67 25.43C2.84 25.46 3 25.5 3.16 25.54C3.2 25.55 3.23 25.56 3.27 25.57C3.42 25.61 3.58 25.65 3.74 25.69C5.24 26.12 6.8 26.32 8.36 26.29C9.92 26.32 11.48 26.12 12.98 25.69C14.39 25.28 15.85 25.09 17.31 25.12C18.77 25.09 20.24 25.28 21.64 25.69C21.75 25.71 21.85 25.74 21.96 25.77C22 25.78 22.04 25.79 22.08 25.8C22.15 25.82 22.22 25.83 22.29 25.85C22.34 25.86 22.38 25.87 22.43 25.88C22.5 25.9 22.57 25.92 22.65 25.93C22.69 25.94 22.74 25.95 22.79 25.96C22.86 25.98 22.94 25.99 23.02 26.01C23.07 26.02 23.12 26.03 23.17 26.04C23.25 26.05 23.33 26.07 23.42 26.08C23.47 26.09 23.52 26.1 23.57 26.11C23.66 26.12 23.76 26.13 23.86 26.15C23.91 26.15 23.96 26.16 24.01 26.17C24.12 26.18 24.24 26.19 24.36 26.2C24.4 26.21 24.44 26.21 24.49 26.22L24.51 26.22C24.51 26.23 24.51 26.24 24.51 26.26C24.51 26.63 24.46 27.01 24.38 27.37L24.35 27.37C24.13 27.34 23.93 27.32 23.73 27.29C23.7 27.28 23.67 27.28 23.64 27.27C23.45 27.24 23.27 27.21 23.1 27.17C23.06 27.17 23.03 27.16 22.99 27.15C22.83 27.12 22.66 27.08 22.51 27.04C22.47 27.03 22.43 27.02 22.39 27.01C22.24 26.97 22.09 26.93 21.93 26.89C20.43 26.46 18.87 26.26 17.31 26.29C15.75 26.26 14.19 26.46 12.69 26.89C11.28 27.3 9.82 27.49 8.36 27.46C6.89 27.49 5.43 27.3 4.03 26.89C3.92 26.87 3.81 26.84 3.71 26.81C3.67 26.8 3.64 26.8 3.61 26.79C3.53 26.77 3.45 26.75 3.37 26.73C3.33 26.72 3.29 26.71 3.24 26.7C3.17 26.68 3.1 26.67 3.03 26.65C2.98 26.64 2.93 26.63 2.88 26.62C2.81 26.6 2.73 26.59 2.66 26.57C2.61 26.56 2.55 26.55 2.49 26.54C2.42 26.53 2.35 26.52 2.27 26.5C2.21 26.49 2.15 26.48 2.09 26.47C2.01 26.46 1.93 26.45 1.84 26.44C1.78 26.43 1.72 26.42 1.65 26.41C1.56 26.4 1.46 26.39 1.37 26.38C1.3 26.38 1.24 26.37 1.18 26.37L1.16 26.36C1.16 26.33 1.16 26.29 1.16 26.26C1.16 25.91 1.2 25.55 1.28 25.21Z" fill="#000000" fill-opacity="1.000000" fill-rule="nonzero"/>
		<path id="Vector" d="M6.68 30.11C6.44 29.99 6.22 29.86 6 29.72C5.73 29.55 5.37 29.63 5.2 29.91C5.02 30.18 5.11 30.54 5.38 30.71C5.62 30.86 5.88 31.01 6.15 31.15C6.43 31.3 6.79 31.19 6.93 30.9C7.08 30.61 6.97 30.26 6.68 30.11Z" fill="#000000" fill-opacity="1.000000" fill-rule="nonzero"/>
		<path id="Vector" d="M20.44 29.16C18.62 30.63 15.85 31.48 12.83 31.48C11.31 31.49 9.8 31.26 8.35 30.8C8.04 30.7 7.71 30.87 7.61 31.18C7.51 31.48 7.68 31.81 7.99 31.91C9.55 32.41 11.19 32.66 12.83 32.65C16.11 32.65 19.15 31.71 21.18 30.07C21.43 29.87 21.47 29.5 21.27 29.25C21.06 29 20.7 28.96 20.44 29.16Z" fill="#000000" fill-opacity="1.000000" fill-rule="nonzero"/>
		<path id="Vector" d="M16.68 9.21C16.62 8.98 16.57 8.75 16.52 8.53C16.46 8.21 16.15 8.01 15.83 8.07C15.52 8.13 15.31 8.44 15.38 8.76C15.43 9.01 15.49 9.26 15.56 9.52C15.65 9.83 15.97 10.01 16.28 9.93C16.59 9.84 16.77 9.52 16.68 9.21Z" fill="#000000" fill-opacity="1.000000" fill-rule="nonzero"/>
		<path id="Vector" d="M28.13 19.29C28.15 18.97 27.9 18.69 27.58 18.67C25.18 18.52 22.33 17.07 20.15 14.89C19.05 13.8 18.14 12.55 17.44 11.16C17.3 10.88 16.95 10.76 16.66 10.9C16.37 11.04 16.26 11.39 16.4 11.68C17.15 13.18 18.14 14.54 19.33 15.71C21.74 18.13 24.8 19.67 27.51 19.83C27.52 19.83 27.53 19.83 27.55 19.83C27.85 19.83 28.11 19.59 28.13 19.29Z" fill="#000000" fill-opacity="1.000000" fill-rule="nonzero"/>
	</g>
	<path id="Coffee house" d="M76.39 29Q75.57 29.93 75.18 31.29Q75.26 30.42 75.5 28.5Q75.73 26.58 75.73 25.98Q75.73 25.12 75.45 24.63Q75.45 24.62 75.45 24.62Q75.16 24.13 74.47 23.88Q74.61 24.24 74.61 25.29Q74.61 27.6 73.98 32.07Q73.76 33.52 73.76 34.03Q73.76 34.51 74.01 34.75Q74.02 34.77 74.03 34.78Q74.3 35.02 74.87 35.02Q74.9 35.02 75.19 35Q75.12 34.58 75.12 33.71Q75.12 32.84 75.36 31.94Q75.61 31.05 75.98 30.47Q76.34 29.88 76.74 29.54Q77.14 29.2 77.46 29.2Q77.64 29.2 77.76 29.29Q78.01 29.46 78.01 29.99Q78.01 30.63 77.77 31.98Q77.53 33.33 77.53 33.77Q77.53 34.54 77.9 34.86Q78.26 35.17 79.03 35.17Q79.32 35.17 79.47 35.16Q79.1 34.96 78.95 34.68Q78.79 34.39 78.79 33.78Q78.79 33.16 79.03 31.8Q79.26 30.45 79.26 29.7Q79.26 28.95 78.96 28.51Q78.9 28.43 78.84 28.37Q78.53 28.07 77.94 28.07Q77.22 28.07 76.39 29ZM50.96 29.12Q51.16 28.92 51.16 28.42Q51.16 28.27 51.13 28.11Q50.7 28.46 49.53 28.46Q50.2 25.1 51.38 24.91Q51.45 24.9 51.52 24.9Q51.64 24.9 51.74 24.95Q51.87 25.01 51.96 25.13Q52 25.17 52.02 25.22Q52.14 25.42 52.14 25.69Q52.14 25.78 52.13 25.88Q52.1 26.11 51.99 26.33Q51.84 26.63 51.69 26.76Q51.71 26.77 51.73 26.78Q51.9 26.85 52.09 26.85Q52.4 26.85 52.64 26.72Q52.81 26.63 52.94 26.47Q53.04 26.36 53.11 26.23Q53.27 25.93 53.27 25.54Q53.27 25.33 53.2 25.15Q53.1 24.84 52.81 24.59Q52.73 24.52 52.63 24.46Q52.23 24.2 51.65 24.2Q51.38 24.2 51.12 24.26Q49.37 24.73 48.47 28.42Q47.76 28.42 47.38 28.62Q47.29 28.66 47.22 28.73Q47 28.95 47 29.39Q47 29.55 47.03 29.74Q47.66 29.48 48.26 29.38Q47.82 31.71 47.82 33.88Q47.82 35.26 48.51 35.93Q48.78 36.2 49.17 36.35Q49.04 35.58 49.01 35.26Q48.98 34.95 48.98 34.24Q48.98 31.9 49.39 29.31L50.4 29.31Q50.76 29.31 50.95 29.12Q50.96 29.12 50.96 29.12ZM55.86 29.12Q56.05 28.92 56.05 28.42Q56.05 28.27 56.03 28.11Q55.59 28.46 54.43 28.46Q55.1 25.1 56.27 24.91Q56.34 24.9 56.41 24.9Q56.54 24.9 56.64 24.95Q56.76 25.01 56.86 25.13Q56.89 25.17 56.92 25.22Q57.04 25.42 57.04 25.69Q57.04 25.78 57.02 25.88Q56.99 26.11 56.88 26.33Q56.73 26.63 56.59 26.76Q56.61 26.77 56.63 26.78Q56.79 26.85 56.99 26.85Q57.3 26.85 57.54 26.72Q57.7 26.63 57.84 26.47Q57.94 26.36 58 26.23Q58.16 25.93 58.16 25.54Q58.16 25.33 58.1 25.15Q57.99 24.84 57.71 24.59Q57.62 24.52 57.53 24.46Q57.12 24.2 56.54 24.2Q56.27 24.2 56.02 24.26Q54.27 24.73 53.36 28.42Q52.66 28.42 52.28 28.62Q52.19 28.66 52.12 28.73Q51.9 28.95 51.9 29.39Q51.9 29.55 51.92 29.74Q52.56 29.48 53.16 29.38Q52.71 31.71 52.71 33.88Q52.71 35.26 53.4 35.93Q53.68 36.2 54.07 36.35Q53.94 35.58 53.91 35.26Q53.88 34.95 53.88 34.24Q53.88 31.9 54.29 29.31L55.3 29.31Q55.66 29.31 55.85 29.12Q55.85 29.12 55.86 29.12ZM33.83 34.98Q34.31 35.17 34.87 35.17Q35.75 35.17 36.63 34.74Q37.65 34.25 38.33 32.98Q38.33 32.87 38.17 32.76Q38.07 32.69 37.95 32.67Q37.9 32.65 37.84 32.65Q37.46 33.29 36.9 33.68Q36.79 33.76 36.67 33.83Q35.96 34.24 35.29 34.24Q34.82 34.24 34.44 34.06Q33.99 33.86 33.65 33.42Q33.01 32.6 33.01 30.94Q33.01 30.27 33.13 29.61Q33.22 29.13 33.38 28.65Q33.74 27.54 34.47 26.78Q34.98 26.24 35.6 26.08Q35.85 26.02 36.12 26.02Q36.61 26.02 36.89 26.26Q36.96 26.32 37.01 26.4Q37.07 26.48 37.12 26.56Q37.29 26.89 37.29 27.3Q37.29 27.34 37.29 27.38Q37.28 27.87 37.08 28.35Q36.87 28.87 36.6 29.16Q36.91 29.26 37.13 29.26Q37.49 29.26 37.78 29.11Q38.03 28.99 38.22 28.76Q38.24 28.74 38.26 28.71Q38.64 28.22 38.64 27.44Q38.64 27.11 38.55 26.81Q38.4 26.36 38.04 25.97Q37.44 25.32 36.12 25.32Q35.45 25.32 34.85 25.53Q34.27 25.73 33.75 26.12Q33.3 26.46 32.96 26.88Q32.49 27.45 32.21 28.17Q31.72 29.43 31.72 30.95Q31.72 33.01 32.63 34.1Q33.16 34.72 33.83 34.98ZM42.2 28.7Q41.42 29.29 40.97 30.59Q41.18 29.32 41.92 28.56Q42.15 28.33 42.43 28.14Q42.43 28.02 42.37 27.96Q42.31 27.9 42.19 27.9Q41.81 28.05 41.48 28.28Q40.85 28.72 40.43 29.44Q39.78 30.54 39.78 32.05Q39.78 33.55 40.51 34.37Q41 34.91 41.6 35.09Q41.9 35.17 42.22 35.17Q42.85 35.17 43.38 34.95Q43.43 34.92 43.49 34.9Q43.7 34.8 43.89 34.67Q44.67 34.16 45.12 33.16Q45.19 33.01 45.25 32.85Q45.62 31.85 45.62 30.71Q45.62 29.51 45.1 28.81Q44.77 28.38 44.34 28.21Q44.08 28.11 43.77 28.11Q43.73 28.11 43.7 28.11Q42.94 28.13 42.2 28.7ZM83.45 28.7Q82.68 29.29 82.22 30.59Q82.43 29.32 83.17 28.56Q83.4 28.33 83.69 28.14Q83.69 28.02 83.62 27.96Q83.57 27.9 83.45 27.9Q83.07 28.05 82.74 28.28Q82.11 28.72 81.68 29.44Q81.03 30.54 81.03 32.05Q81.03 33.55 81.77 34.37Q82.26 34.91 82.86 35.09Q83.15 35.17 83.47 35.17Q84.1 35.17 84.64 34.95Q84.69 34.92 84.74 34.9Q84.95 34.8 85.14 34.67Q85.92 34.16 86.38 33.16Q86.44 33.01 86.5 32.85Q86.88 31.85 86.88 30.71Q86.88 29.51 86.35 28.81Q86.03 28.38 85.6 28.21Q85.33 28.11 85.02 28.11Q84.99 28.11 84.95 28.11Q84.19 28.13 83.45 28.7ZM97.97 28.71Q98.14 28.66 98.33 28.66Q98.64 28.66 98.87 28.79Q98.94 28.83 99 28.89Q99.06 28.93 99.1 28.99Q99.28 29.21 99.28 29.56Q99.28 29.67 99.26 29.78Q99.2 30.1 98.96 30.39Q99.21 30.5 99.41 30.5Q99.58 30.5 99.73 30.43Q99.91 30.35 100.06 30.17Q100.07 30.15 100.08 30.14Q100.31 29.81 100.31 29.33Q100.31 29.2 100.28 29.09Q100.2 28.72 99.85 28.41Q99.4 28 98.41 28Q97.62 28 97.05 28.35Q96.91 28.44 96.78 28.55Q96.46 28.81 96.3 29.15Q96.13 29.51 96.13 29.94Q96.13 30.29 96.24 30.59Q96.28 30.7 96.33 30.8Q96.54 31.19 96.84 31.45Q97.15 31.71 97.51 31.97Q97.87 32.24 98.18 32.45Q98.38 32.59 98.53 32.77Q98.62 32.86 98.69 32.97Q98.74 33.04 98.77 33.11Q98.89 33.36 98.89 33.66Q98.89 33.82 98.84 33.95Q98.76 34.16 98.54 34.32Q98.49 34.36 98.43 34.4Q98.11 34.58 97.7 34.58Q97.32 34.58 97.07 34.4Q96.99 34.34 96.92 34.27Q96.82 34.16 96.76 34.03Q96.64 33.8 96.64 33.5Q96.64 33.19 96.75 32.94Q96.81 32.82 96.9 32.7Q96.81 32.66 96.71 32.63Q96.6 32.61 96.49 32.61Q96.32 32.61 96.18 32.66Q95.97 32.74 95.8 32.93Q95.79 32.94 95.79 32.94Q95.51 33.26 95.51 33.83Q95.51 33.96 95.54 34.08Q95.64 34.49 96.09 34.82Q96.67 35.24 97.73 35.24Q98.74 35.24 99.4 34.76Q99.44 34.73 99.48 34.7Q99.84 34.42 100.01 34.04Q100.16 33.71 100.16 33.32Q100.16 33.24 100.16 33.16Q100.07 32.4 99.16 31.72Q98.72 31.41 98.3 31.11Q97.88 30.81 97.59 30.42Q97.37 30.14 97.32 29.82Q97.3 29.71 97.3 29.6Q97.3 29.33 97.41 29.14Q97.49 29.01 97.61 28.91Q97.78 28.78 97.97 28.71ZM93.69 28.29Q93.44 28.05 92.94 28.05Q92.82 28.05 92.55 28.07Q92.63 28.54 92.63 29.04Q92.63 30.16 92.29 31.3Q91.95 32.44 91.46 33.16Q90.96 33.87 90.5 33.87Q90.35 33.87 90.24 33.8Q89.95 33.62 89.95 32.98Q89.95 32.37 90.2 31.1Q90.45 29.82 90.45 29.41Q90.45 28.69 90.1 28.42Q90.09 28.41 90.07 28.39Q89.69 28.13 88.92 28.13Q89.09 28.75 89.09 29.37Q89.09 29.98 88.89 31.16Q88.69 32.34 88.69 33Q88.69 34.36 89.32 34.79Q89.62 35 90.06 35Q90.71 35 91.46 34.07Q92.22 33.13 92.58 31.77Q92.45 32.82 92.45 33.12Q92.45 33.9 92.73 34.43Q93.01 34.96 93.74 35.25Q93.52 34.43 93.52 33.36Q93.52 32.29 93.74 30.8Q93.97 29.31 93.97 29.12Q93.97 28.56 93.69 28.29ZM60.31 34.82Q60.97 34.46 61.52 33.55Q61.52 33.49 61.5 33.45Q61.42 33.28 61.08 33.23Q60.58 34.01 59.89 34.27Q59.54 34.41 59.15 34.41Q58.82 34.41 58.58 34.26Q57.89 33.85 57.89 32.28Q57.89 32.03 57.9 31.91Q58.46 32.04 59.17 32.04Q59.88 32.04 60.47 31.78Q60.77 31.65 61.05 31.45Q61.42 31.18 61.62 30.81Q61.86 30.38 61.86 29.81Q61.86 28.97 61.44 28.54Q60.99 28.07 60.06 28.07Q59.48 28.07 58.96 28.26Q58.76 28.34 58.56 28.44Q58.04 28.73 57.67 29.15Q57.56 29.28 57.47 29.41Q57.16 29.87 56.96 30.37Q56.61 31.24 56.61 32.25Q56.61 33.64 57.26 34.41Q57.72 34.94 58.28 35.1Q58.52 35.17 58.78 35.17Q59.65 35.17 60.31 34.82ZM66.82 34.82Q67.47 34.46 68.03 33.55Q68.03 33.49 68.01 33.45Q67.93 33.28 67.58 33.23Q67.09 34.01 66.4 34.27Q66.05 34.41 65.65 34.41Q65.32 34.41 65.08 34.26Q64.39 33.85 64.39 32.28Q64.39 32.03 64.4 31.91Q64.97 32.04 65.68 32.04Q66.38 32.04 66.97 31.78Q67.28 31.65 67.55 31.45Q67.92 31.18 68.12 30.81Q68.36 30.38 68.36 29.81Q68.36 28.97 67.94 28.54Q67.49 28.07 66.56 28.07Q65.98 28.07 65.47 28.26Q65.26 28.34 65.07 28.44Q64.54 28.73 64.18 29.15Q64.07 29.28 63.97 29.41Q63.66 29.87 63.46 30.37Q63.12 31.24 63.12 32.25Q63.12 33.64 63.77 34.41Q64.22 34.94 64.78 35.1Q65.03 35.17 65.29 35.17Q66.16 35.17 66.82 34.82ZM105.43 34.82Q106.09 34.46 106.64 33.55Q106.64 33.49 106.62 33.45Q106.54 33.28 106.2 33.23Q105.71 34.01 105.01 34.27Q104.67 34.41 104.27 34.41Q103.94 34.41 103.7 34.26Q103.01 33.85 103.01 32.28Q103.01 32.03 103.02 31.91Q103.58 32.04 104.29 32.04Q105 32.04 105.59 31.78Q105.89 31.65 106.17 31.45Q106.54 31.18 106.74 30.81Q106.98 30.38 106.98 29.81Q106.98 28.97 106.56 28.54Q106.11 28.07 105.18 28.07Q104.6 28.07 104.08 28.26Q103.88 28.34 103.68 28.44Q103.16 28.73 102.79 29.15Q102.68 29.28 102.59 29.41Q102.28 29.87 102.08 30.37Q101.73 31.24 101.73 32.25Q101.73 33.64 102.38 34.41Q102.84 34.94 103.4 35.1Q103.64 35.17 103.9 35.17Q104.77 35.17 105.43 34.82ZM59.53 28.74Q59.67 28.7 59.83 28.7Q60.13 28.7 60.31 28.84Q60.36 28.88 60.4 28.94Q60.59 29.17 60.59 29.57Q60.59 29.84 60.51 30.09Q60.4 30.48 60.11 30.82Q59.85 31.11 59.39 31.29Q58.92 31.47 58.28 31.47L57.95 31.47Q58.11 30.35 58.61 29.53Q59 28.88 59.53 28.74ZM66.03 28.74Q66.18 28.7 66.34 28.7Q66.64 28.7 66.81 28.84Q66.86 28.88 66.9 28.94Q67.09 29.17 67.09 29.57Q67.09 29.84 67.02 30.09Q66.9 30.48 66.61 30.82Q66.36 31.11 65.89 31.29Q65.42 31.47 64.79 31.47L64.45 31.47Q64.62 30.35 65.12 29.53Q65.51 28.88 66.03 28.74ZM104.65 28.74Q104.79 28.7 104.95 28.7Q105.25 28.7 105.43 28.84Q105.48 28.88 105.52 28.94Q105.71 29.17 105.71 29.57Q105.71 29.84 105.63 30.09Q105.52 30.48 105.23 30.82Q104.98 31.11 104.51 31.29Q104.04 31.47 103.4 31.47L103.07 31.47Q103.23 30.35 103.73 29.53Q104.12 28.88 104.65 28.74ZM44.15 29.37Q44.45 29.88 44.45 31.05Q44.45 31.31 44.42 31.55Q44.32 32.46 43.86 33.33Q43.41 34.16 42.77 34.36Q42.56 34.43 42.34 34.43Q42.04 34.43 41.8 34.3Q41.53 34.15 41.35 33.81Q41.03 33.2 41.03 32.35Q41.03 31.93 41.11 31.52Q41.19 31.11 41.34 30.72Q41.66 29.93 42.21 29.4Q42.77 28.86 43.31 28.86Q43.55 28.86 43.74 28.96Q43.99 29.08 44.15 29.37ZM85.41 29.37Q85.7 29.88 85.7 31.05Q85.7 31.31 85.68 31.55Q85.58 32.46 85.12 33.33Q84.67 34.16 84.02 34.36Q83.82 34.43 83.59 34.43Q83.29 34.43 83.06 34.3Q82.78 34.15 82.6 33.81Q82.28 33.2 82.28 32.35Q82.28 31.93 82.36 31.52Q82.44 31.11 82.6 30.72Q82.92 29.93 83.47 29.4Q84.02 28.86 84.57 28.86Q84.8 28.86 84.99 28.96Q85.24 29.08 85.41 29.37Z" fill="#000000" fill-opacity="1.000000" fill-rule="evenodd"/>
</svg>
