<svg width="35.000000" height="34.000000" viewBox="0 0 35 34" fill="none" xmlns="http://www.w3.org/2000/svg" xmlns:xlink="http://www.w3.org/1999/xlink">
	<desc>
			Created with Pixso.
	</desc>
	<defs/>
	<path id="Vector" d="M0.05 25.98C0.6 30.54 6.09 33.98 12.83 33.98C18.9 33.98 24.05 31.18 25.36 27.18L25.36 27.17C25.57 26.56 25.67 25.91 25.67 25.26C25.67 25.06 25.66 24.87 25.63 24.67L25.63 24.61L25.63 24.61C25.39 22.88 24.53 21.3 23.22 20.16C24.72 20.81 26.33 21.17 27.96 21.2C29.32 21.22 30.66 20.89 31.84 20.22L31.84 20.22C32.3 19.96 32.72 19.65 33.09 19.28C33.37 19 33.62 18.68 33.84 18.35L33.84 18.35C36.3 14.64 34.72 8.42 30.17 3.87C25.96 -0.35 20.17 -2.06 16.4 -0.21C15.79 0.08 15.24 0.48 14.76 0.95C14.58 1.13 14.42 1.32 14.27 1.52L14.27 1.52C11.46 5.13 12.96 11.65 17.67 16.37C18.14 16.83 18.63 17.27 19.14 17.68C17.13 16.92 14.99 16.53 12.83 16.54C6.81 16.54 1.54 19.43 0.28 23.41C0.09 24.01 0 24.63 0 25.26C0 25.5 0.02 25.74 0.05 25.98L0.05 25.98ZM12.83 32.81C7.16 32.81 2.31 30.12 1.35 26.56C1.37 26.56 1.39 26.56 1.42 26.56C1.62 26.59 1.82 26.61 2.01 26.64C2.04 26.65 2.06 26.65 2.09 26.66C2.26 26.68 2.43 26.72 2.59 26.75C2.61 26.75 2.64 26.76 2.67 26.77C2.84 26.8 3 26.84 3.16 26.88C3.2 26.89 3.23 26.9 3.27 26.91C3.42 26.94 3.58 26.98 3.73 27.02C5.24 27.45 6.8 27.65 8.36 27.63C9.92 27.65 11.48 27.45 12.98 27.02C14.39 26.62 15.85 26.43 17.31 26.46C18.77 26.43 20.23 26.62 21.64 27.02C21.78 27.06 21.93 27.1 22.08 27.14C22.12 27.15 22.15 27.15 22.19 27.16C22.35 27.2 22.51 27.24 22.68 27.28C22.7 27.28 22.72 27.29 22.75 27.29C22.9 27.33 23.07 27.36 23.24 27.39C23.27 27.39 23.3 27.4 23.33 27.4C23.52 27.44 23.71 27.46 23.92 27.49C23.94 27.49 23.95 27.5 23.97 27.5C22.46 30.62 17.94 32.81 12.83 32.81ZM29.35 4.69C33.17 8.52 34.77 13.75 33.24 17.03C33.23 17.01 33.21 16.99 33.19 16.97C33.04 16.79 32.9 16.62 32.77 16.45C32.76 16.43 32.75 16.42 32.74 16.4C32.62 16.24 32.5 16.09 32.4 15.94C32.38 15.91 32.37 15.89 32.35 15.86C32.24 15.71 32.14 15.55 32.05 15.4C32.03 15.37 32.01 15.35 31.99 15.32C31.9 15.17 31.81 15.02 31.72 14.87C30.94 13.52 29.96 12.29 28.82 11.22C27.72 10.11 26.46 9.18 25.08 8.44C23.79 7.75 22.62 6.87 21.59 5.83C20.52 4.84 19.6 3.69 18.87 2.42C18.8 2.3 18.72 2.17 18.65 2.05L18.59 1.95C18.51 1.82 18.42 1.68 18.33 1.55C18.32 1.53 18.31 1.52 18.3 1.5C18.22 1.38 18.13 1.25 18.04 1.12C18.01 1.09 17.99 1.06 17.97 1.03C17.87 0.88 17.76 0.73 17.63 0.58C17.63 0.57 17.62 0.56 17.61 0.55C20.95 -0.57 25.74 1.08 29.35 4.69ZM15.58 1.77C15.86 1.5 16.18 1.25 16.52 1.05C16.53 1.07 16.53 1.08 16.54 1.09C16.67 1.24 16.79 1.39 16.9 1.54C16.92 1.56 16.94 1.59 16.95 1.61C17.06 1.76 17.16 1.9 17.26 2.04C17.28 2.07 17.29 2.1 17.31 2.13C17.41 2.27 17.49 2.4 17.58 2.54C17.59 2.56 17.61 2.59 17.62 2.61C17.71 2.75 17.79 2.89 17.88 3.02C18.66 4.38 19.63 5.6 20.77 6.67C21.87 7.78 23.13 8.72 24.51 9.45C25.8 10.14 26.98 11.02 28.01 12.06C29.08 13.06 29.99 14.21 30.72 15.48C30.78 15.58 30.84 15.68 30.91 15.78C30.93 15.81 30.95 15.85 30.97 15.88C31.01 15.95 31.06 16.02 31.1 16.09C31.13 16.13 31.15 16.17 31.18 16.21C31.22 16.28 31.27 16.34 31.31 16.41C31.34 16.45 31.37 16.5 31.4 16.55C31.45 16.61 31.49 16.68 31.54 16.74C31.57 16.79 31.61 16.84 31.64 16.89C31.69 16.96 31.74 17.02 31.79 17.09C31.83 17.14 31.87 17.2 31.91 17.25C31.97 17.32 32.02 17.39 32.08 17.46C32.13 17.51 32.17 17.57 32.22 17.63C32.28 17.7 32.34 17.78 32.41 17.85C32.46 17.91 32.51 17.97 32.56 18.03C32.58 18.04 32.59 18.06 32.6 18.07C32.5 18.21 32.38 18.33 32.26 18.46C32.08 18.64 31.87 18.81 31.65 18.96L31.63 18.94C31.59 18.9 31.56 18.86 31.52 18.82C31.46 18.74 31.39 18.66 31.33 18.59C31.29 18.54 31.25 18.49 31.22 18.45C31.16 18.38 31.11 18.31 31.06 18.25C31.02 18.2 30.99 18.16 30.95 18.11C30.91 18.05 30.86 17.99 30.82 17.93C30.79 17.88 30.76 17.84 30.73 17.8C30.68 17.74 30.64 17.68 30.6 17.62C30.57 17.58 30.55 17.54 30.52 17.49C30.48 17.43 30.44 17.37 30.4 17.31C30.37 17.27 30.35 17.24 30.33 17.2C30.28 17.13 30.24 17.07 30.2 17C30.18 16.97 30.16 16.94 30.14 16.91C30.09 16.81 30.03 16.72 29.97 16.62C29.19 15.27 28.21 14.04 27.07 12.97C25.97 11.87 24.71 10.93 23.33 10.19C22.04 9.5 20.86 8.62 19.84 7.58C18.77 6.59 17.85 5.43 17.12 4.17C17.03 4.02 16.94 3.87 16.84 3.72C16.82 3.69 16.8 3.65 16.78 3.62C16.69 3.47 16.59 3.31 16.48 3.15C16.46 3.12 16.43 3.08 16.41 3.05C16.3 2.89 16.18 2.72 16.04 2.54C16.02 2.51 16 2.48 15.97 2.45C15.83 2.27 15.68 2.07 15.5 1.87L15.5 1.86C15.53 1.83 15.55 1.8 15.58 1.77ZM18.5 15.54C14.46 11.49 12.93 6.09 14.79 2.84C14.8 2.85 14.82 2.87 14.83 2.89C14.96 3.04 15.07 3.19 15.18 3.34C15.2 3.36 15.22 3.39 15.24 3.42C15.33 3.55 15.42 3.68 15.51 3.8C15.52 3.82 15.54 3.85 15.56 3.87C15.65 4.01 15.74 4.15 15.82 4.29C15.84 4.32 15.86 4.34 15.88 4.37C15.96 4.51 16.04 4.64 16.12 4.77C16.9 6.13 17.88 7.36 19.02 8.42C20.12 9.53 21.38 10.47 22.76 11.21C24.05 11.89 25.23 12.77 26.26 13.81C27.33 14.81 28.24 15.96 28.97 17.23C29.06 17.38 29.16 17.53 29.25 17.68C29.27 17.71 29.29 17.75 29.32 17.78C29.41 17.94 29.52 18.1 29.63 18.26C29.65 18.29 29.67 18.33 29.7 18.36C29.81 18.53 29.93 18.7 30.07 18.87L30.08 18.9C30.22 19.08 30.38 19.27 30.54 19.46C30.56 19.49 30.58 19.51 30.6 19.54C27.29 20.91 22.25 19.28 18.5 15.54ZM12.83 17.7C18.56 17.7 23.42 20.43 24.34 24.03C24.32 24.02 24.29 24.02 24.27 24.02C24.06 24 23.86 23.97 23.67 23.94C23.64 23.94 23.62 23.93 23.59 23.93C23.42 23.9 23.26 23.87 23.1 23.83C23.07 23.83 23.03 23.82 23 23.82C22.84 23.78 22.67 23.74 22.52 23.7C22.47 23.69 22.43 23.68 22.39 23.67C22.24 23.63 22.09 23.6 21.94 23.56C20.43 23.13 18.87 22.93 17.31 22.96C15.75 22.93 14.19 23.13 12.69 23.56C11.28 23.96 9.82 24.15 8.36 24.12C6.9 24.15 5.44 23.96 4.03 23.56C3.89 23.52 3.74 23.48 3.59 23.45C3.55 23.44 3.51 23.43 3.47 23.42C3.31 23.38 3.15 23.34 2.98 23.3C2.95 23.3 2.93 23.29 2.9 23.28C2.74 23.25 2.58 23.22 2.41 23.19C2.38 23.18 2.35 23.18 2.32 23.17C2.13 23.14 1.93 23.11 1.72 23.09C1.7 23.08 1.68 23.08 1.66 23.08C3.14 19.93 7.68 17.7 12.83 17.7ZM1.28 24.21L1.3 24.21C1.52 24.24 1.73 24.26 1.93 24.29C1.96 24.3 1.99 24.3 2.02 24.31C2.21 24.34 2.39 24.37 2.56 24.41C2.6 24.41 2.63 24.42 2.67 24.43C2.84 24.46 3 24.5 3.16 24.54C3.2 24.55 3.23 24.56 3.27 24.57C3.42 24.61 3.58 24.65 3.74 24.69C5.24 25.12 6.8 25.32 8.36 25.29C9.92 25.32 11.48 25.12 12.98 24.69C14.39 24.28 15.85 24.09 17.31 24.12C18.77 24.09 20.24 24.28 21.64 24.69C21.75 24.71 21.85 24.74 21.96 24.77C22 24.78 22.04 24.79 22.08 24.8C22.15 24.82 22.22 24.83 22.29 24.85C22.34 24.86 22.38 24.87 22.43 24.88C22.5 24.9 22.57 24.92 22.65 24.93C22.69 24.94 22.74 24.95 22.79 24.96C22.86 24.98 22.94 24.99 23.02 25.01C23.07 25.02 23.12 25.03 23.17 25.04C23.25 25.05 23.33 25.07 23.42 25.08C23.47 25.09 23.52 25.1 23.57 25.11C23.66 25.12 23.76 25.13 23.86 25.15C23.91 25.15 23.96 25.16 24.01 25.17C24.12 25.18 24.24 25.19 24.36 25.2C24.4 25.21 24.44 25.21 24.49 25.22L24.51 25.22C24.51 25.23 24.51 25.24 24.51 25.26C24.51 25.63 24.46 26.01 24.38 26.37L24.35 26.37C24.13 26.34 23.93 26.32 23.73 26.29C23.7 26.28 23.67 26.28 23.64 26.27C23.45 26.24 23.27 26.21 23.1 26.17C23.06 26.17 23.03 26.16 22.99 26.15C22.83 26.12 22.66 26.08 22.51 26.04C22.47 26.03 22.43 26.02 22.39 26.01C22.24 25.97 22.09 25.93 21.93 25.89C20.43 25.46 18.87 25.26 17.31 25.29C15.75 25.26 14.19 25.46 12.69 25.89C11.28 26.3 9.82 26.49 8.36 26.46C6.89 26.49 5.43 26.3 4.03 25.89C3.92 25.87 3.81 25.84 3.71 25.81C3.67 25.8 3.64 25.8 3.61 25.79C3.53 25.77 3.45 25.75 3.37 25.73C3.33 25.72 3.29 25.71 3.24 25.7C3.17 25.68 3.1 25.67 3.03 25.65C2.98 25.64 2.93 25.63 2.88 25.62C2.81 25.6 2.73 25.59 2.66 25.57C2.61 25.56 2.55 25.55 2.49 25.54C2.42 25.53 2.35 25.52 2.27 25.5C2.21 25.49 2.15 25.48 2.09 25.47C2.01 25.46 1.93 25.45 1.84 25.44C1.78 25.43 1.72 25.42 1.65 25.41C1.56 25.4 1.46 25.39 1.37 25.38C1.3 25.38 1.24 25.37 1.18 25.37L1.16 25.36C1.16 25.33 1.16 25.29 1.16 25.26C1.16 24.91 1.2 24.55 1.28 24.21Z" fill="#000000" fill-opacity="1.000000" fill-rule="nonzero"/>
</svg>
